<svg xmlns="http://www.w3.org/2000/svg" xmlns:xlink="http://www.w3.org/1999/xlink" contentStyleType="text/css" height="469px" preserveAspectRatio="none" style="width:750px;height:469px;background:#FFFFFF;" version="1.1" viewBox="0 0 750 469" width="750px" zoomAndPan="magnify"><defs/><g><!--entity out_dev--><g id="elem_out_dev"><ellipse cx="225" cy="14" fill="#F1F1F1" rx="8" ry="8" style="stroke:#181818;stroke-width:0.5;"/><path d="M225,22 L225,49 M212,30 L238,30 M225,49 L212,64 M225,49 L238,64 " fill="none" style="stroke:#181818;stroke-width:0.5;"/><text fill="#000000" font-family="sans-serif" font-size="14" lengthAdjust="spacing" textLength="55" x="197.5" y="78.4951">out_dev</text></g><g id="elem_endpoints"><ellipse cx="224.9968" cy="169.4874" fill="#F1F1F1" rx="62.0868" ry="14.8174" style="stroke:#181818;stroke-width:0.5;"/><text fill="#000000" font-family="sans-serif" font-size="14" lengthAdjust="spacing" textLength="70" x="186.9968" y="173.2349">endpoints</text></g><g id="elem_GMN5"><path d="M6,141.79 L6,197.1884 A0,0 0 0 0 6,197.1884 L128,197.1884 A0,0 0 0 0 128,197.1884 L128,173.49 L162.74,169.49 L128,165.49 L128,151.79 L118,141.79 L6,141.79 A0,0 0 0 0 6,141.79 " fill="#FEFFDD" style="stroke:#181818;stroke-width:0.5;"/><path d="M118,141.79 L118,151.79 L128,151.79 L118,141.79 " fill="#FEFFDD" style="stroke:#181818;stroke-width:0.5;"/><text fill="#000000" font-family="sans-serif" font-size="13" lengthAdjust="spacing" textLength="26" x="12" y="158.8569">http</text><text fill="#000000" font-family="sans-serif" font-size="13" lengthAdjust="spacing" textLength="34" x="12" y="173.9897">kafka</text><text fill="#000000" font-family="sans-serif" font-size="13" lengthAdjust="spacing" textLength="101" x="12" y="189.1225">schedule(tasks)</text></g><!--entity inner_dev--><g id="elem_inner_dev"><ellipse cx="565" cy="14" fill="#F1F1F1" rx="8" ry="8" style="stroke:#181818;stroke-width:0.5;"/><path d="M565,22 L565,49 M552,30 L578,30 M565,49 L552,64 M565,49 L578,64 " fill="none" style="stroke:#181818;stroke-width:0.5;"/><text fill="#000000" font-family="sans-serif" font-size="14" lengthAdjust="spacing" textLength="67" x="531.5" y="78.4951">inner_dev</text></g><g id="elem_cases"><ellipse cx="363.0038" cy="169.4912" fill="#F1F1F1" rx="40.6638" ry="14.5812" style="stroke:#181818;stroke-width:0.5;"/><text fill="#000000" font-family="sans-serif" font-size="14" lengthAdjust="spacing" textLength="41" x="339.8522" y="173.1532">cases</text></g><!--entity analytics--><g id="elem_analytics"><ellipse cx="363" cy="14" fill="#F1F1F1" rx="8" ry="8" style="stroke:#181818;stroke-width:0.5;"/><path d="M363,22 L363,49 M350,30 L376,30 M363,49 L350,64 M363,49 L376,64 " fill="none" style="stroke:#181818;stroke-width:0.5;"/><text fill="#000000" font-family="sans-serif" font-size="14" lengthAdjust="spacing" textLength="59" x="333.5" y="78.4951">analytics</text></g><g id="elem_GMN14"><path d="M438.5,141.79 L438.5,165.49 L403.93,169.49 L438.5,173.49 L438.5,197.1884 A0,0 0 0 0 438.5,197.1884 L617.5,197.1884 A0,0 0 0 0 617.5,197.1884 L617.5,151.79 L607.5,141.79 L438.5,141.79 A0,0 0 0 0 438.5,141.79 " fill="#FEFFDD" style="stroke:#181818;stroke-width:0.5;"/><path d="M607.5,141.79 L607.5,151.79 L617.5,151.79 L607.5,141.79 " fill="#FEFFDD" style="stroke:#181818;stroke-width:0.5;"/><text fill="#000000" font-family="sans-serif" font-size="13" lengthAdjust="spacing" textLength="140" x="444.5" y="158.8569">CreateCampaignCase</text><text fill="#000000" font-family="sans-serif" font-size="13" lengthAdjust="spacing" textLength="158" x="444.5" y="173.9897">CalculateTimesheetCase</text><text fill="#000000" font-family="sans-serif" font-size="13" lengthAdjust="spacing" textLength="152" x="444.5" y="189.1225">ForecastCampaignCase</text></g><g id="elem_infra"><ellipse cx="574.0014" cy="292.4636" fill="#F1F1F1" rx="31.9914" ry="14.5236" style="stroke:#181818;stroke-width:0.5;"/><text fill="#000000" font-family="sans-serif" font-size="14" lengthAdjust="spacing" textLength="29" x="559.5014" y="295.3103">infra</text></g><g id="elem_GMN20"><path d="M640.5,257.19 L640.5,288.46 L606.27,292.46 L640.5,296.46 L640.5,327.7212 A0,0 0 0 0 640.5,327.7212 L743.5,327.7212 A0,0 0 0 0 743.5,327.7212 L743.5,267.19 L733.5,257.19 L640.5,257.19 A0,0 0 0 0 640.5,257.19 " fill="#FEFFDD" style="stroke:#181818;stroke-width:0.5;"/><path d="M733.5,257.19 L733.5,267.19 L743.5,267.19 L733.5,257.19 " fill="#FEFFDD" style="stroke:#181818;stroke-width:0.5;"/><text fill="#000000" font-family="sans-serif" font-size="13" lengthAdjust="spacing" textLength="16" x="646.5" y="274.2569">db</text><text fill="#000000" font-family="sans-serif" font-size="13" lengthAdjust="spacing" textLength="34" x="646.5" y="289.3897">kafka</text><text fill="#000000" font-family="sans-serif" font-size="13" lengthAdjust="spacing" textLength="34" x="646.5" y="304.5225">tasks</text><text fill="#000000" font-family="sans-serif" font-size="13" lengthAdjust="spacing" textLength="82" x="646.5" y="319.6553">http services</text></g><g id="elem_domain"><ellipse cx="363.0024" cy="292.4623" fill="#F1F1F1" rx="48.1224" ry="14.6723" style="stroke:#181818;stroke-width:0.5;"/><text fill="#000000" font-family="sans-serif" font-size="14" lengthAdjust="spacing" textLength="51" x="334.5024" y="296.2098">domain</text></g><!--entity Stakeholders--><g id="elem_Stakeholders"><ellipse cx="363" cy="396.22" fill="#F1F1F1" rx="8" ry="8" style="stroke:#181818;stroke-width:0.5;"/><path d="M363,404.22 L363,431.22 M350,412.22 L376,412.22 M363,431.22 L350,446.22 M363,431.22 L376,446.22 " fill="none" style="stroke:#181818;stroke-width:0.5;"/><text fill="#000000" font-family="sans-serif" font-size="14" lengthAdjust="spacing" textLength="91" x="317.5" y="460.7151">Stakeholders</text></g><!--link out_dev to endpoints--><g id="link_out_dev_endpoints"><path d="M225,82.14 C225,106.49 225,130.84 225,148.31 " fill="none" id="out_dev-to-endpoints" style="stroke:#181818;stroke-width:1.0;"/><polygon fill="#181818" points="225,154.31,229,145.31,225,149.31,221,145.31,225,154.31" style="stroke:#181818;stroke-width:1.0;"/></g><!--link inner_dev to cases--><g id="link_inner_dev_cases"><path d="M531.19,65.37 C488.74,91.4 422.4045,132.0628 387.9245,153.2128 " fill="none" id="inner_dev-to-cases" style="stroke:#181818;stroke-width:1.0;"/><polygon fill="#181818" points="382.81,156.35,392.5732,155.0538,387.0721,153.7357,388.3902,148.2345,382.81,156.35" style="stroke:#181818;stroke-width:1.0;"/></g><!--link analytics to cases--><g id="link_analytics_cases"><path d="M363,82.14 C363,106.63 363,131.19 363,148.61 " fill="none" id="analytics-to-cases" style="stroke:#181818;stroke-width:1.0;"/><polygon fill="#181818" points="363,154.61,367,145.61,363,149.61,359,145.61,363,154.61" style="stroke:#181818;stroke-width:1.0;"/></g><!--link endpoints to cases--><g id="link_endpoints_cases"><path d="M287.53,169.49 C299.03,169.49 304.53,169.49 316.02,169.49 " fill="none" id="endpoints-to-cases" style="stroke:#181818;stroke-width:1.0;"/><polygon fill="#181818" points="322.02,169.49,313.02,165.49,317.02,169.49,313.02,173.49,322.02,169.49" style="stroke:#181818;stroke-width:1.0;"/></g><!--link cases to infra--><g id="link_cases_infra"><path d="M388.8252,185.2942 C429.6752,208.7142 509.985,254.7554 549.625,277.4854 " fill="none" id="cases-infra" style="stroke:#181818;stroke-width:1.0;"/><polygon fill="#181818" points="383.62,182.31,389.4383,190.2565,387.9577,184.7969,393.4173,183.3162,383.62,182.31" style="stroke:#181818;stroke-width:1.0;"/><polygon fill="#181818" points="554.83,280.47,549.0122,272.5231,550.4925,277.9828,545.0327,279.4631,554.83,280.47" style="stroke:#181818;stroke-width:1.0;"/></g><!--link inner_dev to infra--><g id="link_inner_dev_infra"><path d="M598.63,79.89 C612.79,97.13 627.66,119.04 635,141.79 C642.56,165.22 641.97,173.58 635,197.19 C625.39,229.72 604.6096,257.0545 589.7496,274.1245 " fill="none" id="inner_dev-to-infra" style="stroke:#181818;stroke-width:1.0;"/><polygon fill="#181818" points="585.81,278.65,594.7363,274.4882,589.093,274.8788,588.7024,269.2354,585.81,278.65" style="stroke:#181818;stroke-width:1.0;"/></g><!--link cases to domain--><g id="link_cases_domain"><path d="M363,190.37 C363,213.58 363,248.02 363,271.37 " fill="none" id="cases-domain" style="stroke:#181818;stroke-width:1.0;"/><polygon fill="#181818" points="363,184.37,359,193.37,363,189.37,367,193.37,363,184.37" style="stroke:#181818;stroke-width:1.0;"/><polygon fill="#181818" points="363,277.37,367,268.37,363,272.37,359,268.37,363,277.37" style="stroke:#181818;stroke-width:1.0;"/></g><!--reverse link domain to Stakeholders--><g id="link_domain_Stakeholders"><path d="M363,313.52 C363,332.39 363,360.62 363,387.25 " fill="none" id="domain-backto-Stakeholders" style="stroke:#181818;stroke-width:1.0;"/><polygon fill="#181818" points="363,307.52,359,316.52,363,312.52,367,316.52,363,307.52" style="stroke:#181818;stroke-width:1.0;"/></g><!--SRC=[NP1BQiGm38RtEeMMayLS89Hk0hr0ko-ghOnD73dOoi3SlevSqcbNXW_zBuzvrq_Fzn6lrrUyiFWjHz4wW6HbJ3mhvXbF3a5rWuNcXQ2wm7vFV56gIrEq8pnK06CKuVBawwXoknX9A3qqkjgvOJZDyKGMNk8jM7fdKs5IdcZTADvaQWmcIcvFZNx4bMjWLiDlkN3Jw9_RttPcXozMBCfSQ82pxr71sByAdVcld-cssFu2AvTxT7r63tZsztcbA0Fqzu3uhhHmoCbpgTy0]--></g></svg>